<?xml version="1.0" encoding="utf-8"?>
<!-- Generator: Adobe Illustrator 27.8.1, SVG Export Plug-In . SVG Version: 6.00 Build 0)  -->
<svg version="1.1" id="Layer_1" xmlns="http://www.w3.org/2000/svg" xmlns:xlink="http://www.w3.org/1999/xlink" x="0px" y="0px"
	 viewBox="0 0 226.77 226.77" style="enable-background:new 0 0 226.77 226.77;" xml:space="preserve">
<style type="text/css">
	.st0{fill:#292662;}
	.st1{fill:#FFFFFF;}
	.st2{fill:#221F1F;}
	.st3{fill:#1A1A1A;}
	.st4{fill:#B3B3B3;}
	.st5{fill:#666666;}
	.st6{fill:#292663;}
	.st7{fill:#F9A61B;}
	.st8{fill:#23C3F3;}
</style>
<g>
	<circle class="st6" cx="113.39" cy="113.39" r="77.97"/>
	<g>
		<path class="st7" d="M146.92,57.3H86.38c-1.42-2.32-3.95-3.89-6.87-3.89c-4.46,0-8.07,3.61-8.07,8.07s3.61,8.07,8.07,8.07
			c3.1,0,5.76-1.77,7.11-4.33h56.34v0.39l-22.41,30.05c-0.21-0.02-0.42-0.06-0.63-0.06c-3.84,0-6.96,3.11-6.96,6.96
			c0,3.84,3.11,6.96,6.96,6.96s6.96-3.11,6.96-6.96c0-0.62-0.11-1.21-0.26-1.79l23.48-31.47c0.51-0.68,0.78-1.52,0.78-2.37v-5.67
			C150.88,59.08,149.1,57.3,146.92,57.3z"/>
		<path class="st8" d="M147.26,157.22c-3.3,0-6.13,1.98-7.38,4.82H83.32v-1.04l22.34-29.94c0.39,0.07,0.79,0.12,1.2,0.12
			c3.84,0,6.96-3.11,6.96-6.96c0-3.84-3.11-6.96-6.96-6.96s-6.96,3.11-6.96,6.96c0,0.83,0.17,1.62,0.44,2.36l-23.27,31.19
			c-0.45,0.6-0.69,1.33-0.69,2.08v5.67c0,1.92,1.55,3.47,3.47,3.47h60.28c1.34,2.59,4.02,4.38,7.14,4.38c4.46,0,8.07-3.61,8.07-8.07
			C155.33,160.83,151.72,157.22,147.26,157.22z"/>
	</g>
</g>
</svg>
