<?xml version="1.0" encoding="utf-8"?>
<!-- Generator: Adobe Illustrator 27.8.1, SVG Export Plug-In . SVG Version: 6.00 Build 0)  -->
<svg version="1.1" id="Layer_1" xmlns="http://www.w3.org/2000/svg" xmlns:xlink="http://www.w3.org/1999/xlink" x="0px" y="0px"
	 viewBox="0 0 226.77 226.77" style="enable-background:new 0 0 226.77 226.77;" xml:space="preserve">
<style type="text/css">
	.st0{fill:#292662;}
	.st1{fill:#FFFFFF;}
	.st2{fill:#221F1F;}
	.st3{fill:#1A1A1A;}
	.st4{fill:#B3B3B3;}
	.st5{fill:#666666;}
	.st6{fill:#292663;}
	.st7{fill:#F9A61B;}
	.st8{fill:#23C3F3;}
</style>
<circle class="st0" cx="113.43" cy="80.65" r="60.98"/>
<g>
	<path class="st7" d="M139.65,36.79H92.31c-1.11-1.82-3.09-3.04-5.37-3.04c-3.49,0-6.31,2.83-6.31,6.31s2.83,6.31,6.31,6.31
		c2.42,0,4.5-1.38,5.56-3.39h44.06v0.31l-17.53,23.5c-0.17-0.02-0.32-0.05-0.49-0.05c-3,0-5.44,2.44-5.44,5.44
		c0,3,2.44,5.44,5.44,5.44s5.44-2.44,5.44-5.44c0-0.49-0.08-0.95-0.2-1.4l18.36-24.61c0.4-0.53,0.61-1.19,0.61-1.85v-4.43
		C142.75,38.18,141.36,36.79,139.65,36.79z"/>
	<path class="st8" d="M139.92,114.92c-2.58,0-4.79,1.55-5.77,3.77H89.92v-0.82l17.47-23.41c0.31,0.05,0.62,0.09,0.94,0.09
		c3,0,5.44-2.44,5.44-5.44c0-3-2.44-5.44-5.44-5.44s-5.44,2.44-5.44,5.44c0,0.65,0.13,1.27,0.34,1.84l-18.2,24.39
		c-0.35,0.47-0.54,1.04-0.54,1.62v4.43c0,1.5,1.22,2.72,2.72,2.72h47.14c1.05,2.02,3.14,3.42,5.58,3.42c3.49,0,6.31-2.83,6.31-6.31
		C146.23,117.75,143.41,114.92,139.92,114.92z"/>
</g>
<g>
	<g>
		<polygon class="st0" points="42.09,182.74 42.09,180.51 28.95,180.51 28.95,183.64 37.72,183.64 28.06,199.24 28.06,201.47 
			42.17,201.47 42.17,198.34 32.43,198.34 		"/>
		<path class="st0" d="M51.17,180.51l-6.51,20.96h3.61l1.56-5.68h6.69l1.55,5.68h3.75l-6.51-20.96H51.17z M50.64,192.87l0.7-2.56
			c0.63-2.22,1.22-4.59,1.77-6.91h0.12c0.59,2.3,1.17,4.69,1.81,6.91l0.7,2.56H50.64z"/>
		<polygon class="st0" points="80.31,180.51 76.38,180.51 69.28,190.03 69.18,190.03 69.18,180.51 65.64,180.51 65.64,201.47 
			69.18,201.47 69.18,195.35 72.05,191.61 77.44,201.47 81.35,201.47 74.17,188.69 		"/>
		<path class="st0" d="M88.98,180.51l-6.51,20.96h3.61l1.56-5.68h6.69l1.55,5.68h3.75l-6.51-20.96H88.98z M88.45,192.87l0.7-2.56
			c0.63-2.22,1.22-4.59,1.77-6.91h0.12c0.59,2.3,1.17,4.69,1.81,6.91l0.7,2.56H88.45z"/>
		<path class="st0" d="M107.42,180.51l-6.51,20.96h3.61l1.56-5.68h6.69l1.55,5.68h3.75l-6.51-20.96H107.42z M106.89,192.87l0.7-2.56
			c0.63-2.22,1.22-4.59,1.77-6.91h0.12c0.59,2.3,1.17,4.69,1.81,6.91l0.7,2.56H106.89z"/>
		<polygon class="st0" points="126.67,183.64 132.43,183.64 132.43,201.47 135.97,201.47 135.97,183.64 141.73,183.64 
			141.73,180.51 126.67,180.51 		"/>
		<polygon class="st0" points="150.13,192.14 157.31,192.14 157.31,189.01 150.13,189.01 150.13,183.64 158.6,183.64 158.6,180.51 
			146.59,180.51 146.59,201.47 158.91,201.47 158.91,198.34 150.13,198.34 		"/>
		<path class="st0" d="M172.62,198.62c-3.34,0-5.49-2.9-5.49-7.68c0-4.7,2.33-7.59,5.58-7.59c1.56,0,2.76,0.74,3.78,1.82l1.89-2.4
			c-1.26-1.4-3.25-2.65-5.75-2.65c-5.05,0-9.14,4.08-9.14,10.93c0,6.93,3.98,10.79,9,10.79c2.59,0,4.67-1.08,6.29-3.05l-1.89-2.33
			C175.76,197.76,174.39,198.62,172.62,198.62z"/>
		<polygon class="st0" points="195.25,180.51 195.25,188.93 187.18,188.93 187.18,180.51 183.64,180.51 183.64,201.47 
			187.18,201.47 187.18,192.17 195.25,192.17 195.25,201.47 198.79,201.47 198.79,180.51 		"/>
	</g>
	<g>
		<path class="st7" d="M47.65,162.51h-1.03c-1.09,0-1.9-0.19-2.4-0.55c-0.49-0.36-0.73-0.73-0.73-1.13c0-0.39,0.17-0.64,0.55-0.81
			c0.42-0.19,0.96-0.29,1.6-0.29c0.19,0,0.39,0.01,0.62,0.02c0.21,0.01,0.38,0.03,0.5,0.07l0.23,0.07l0.28-1.67l-0.21-0.04
			c-0.25-0.04-0.52-0.07-0.81-0.08c-0.27-0.01-0.55-0.01-0.82-0.01c-1.26,0-2.25,0.25-2.92,0.74c-0.69,0.51-1.05,1.12-1.05,1.82
			c0,0.32,0.1,0.68,0.31,1.09c0.13,0.27,0.34,0.53,0.62,0.78h-2.03v1.65h7.28V162.51z"/>
		<path class="st7" d="M83.64,158.78c0.53,0,1-0.19,1.38-0.57c0.38-0.38,0.57-0.85,0.57-1.38c0-0.54-0.19-1-0.57-1.38
			c-0.38-0.38-0.84-0.57-1.38-0.57c-0.54,0-1,0.19-1.38,0.57c-0.38,0.38-0.57,0.84-0.57,1.38c0,0.54,0.19,1,0.57,1.38
			S83.11,158.78,83.64,158.78z"/>
		<path class="st7" d="M84.74,171.63H63.5c-0.84,0-1.56-0.09-2.12-0.27c-0.55-0.17-1-0.41-1.33-0.72c-0.32-0.3-0.56-0.66-0.7-1.06
			c-0.14-0.41-0.21-0.87-0.21-1.35v-16.08h-3.69v17.36c0,0.69-0.14,1.22-0.41,1.59c-0.25,0.35-0.87,0.52-1.82,0.52H33.86
			c-0.29,0-0.58-0.02-0.85-0.06c-0.25-0.04-0.47-0.12-0.66-0.26c-0.19-0.14-0.33-0.34-0.44-0.6c-0.11-0.27-0.17-0.66-0.17-1.16v-4.4
			h-3.69v5.04c0,0.58,0.1,1.13,0.3,1.65c0.2,0.53,0.52,0.99,0.95,1.38c0.43,0.39,1,0.71,1.69,0.94c0.69,0.23,1.53,0.34,2.5,0.34
			h19.92c0.49,0,0.98-0.03,1.47-0.08c0.49-0.05,0.98-0.16,1.44-0.33c0.47-0.17,0.91-0.42,1.31-0.74c0.31-0.26,0.6-0.58,0.86-0.97
			c0.41,0.76,1,1.3,1.76,1.61c0.85,0.34,1.91,0.51,3.16,0.51h25v-12.05h-3.69V171.63z"/>
		<path class="st7" d="M89.07,154.88c-0.54,0-1,0.19-1.38,0.57c-0.38,0.38-0.57,0.85-0.57,1.38c0,0.54,0.19,1,0.57,1.38
			c0.38,0.38,0.84,0.57,1.38,0.57s1-0.19,1.38-0.57c0.38-0.38,0.57-0.84,0.57-1.38c0-0.54-0.19-1-0.57-1.38
			C90.07,155.07,89.61,154.88,89.07,154.88z"/>
		<path class="st7" d="M111.77,171.61c-0.67-0.18-1.22-0.41-1.65-0.69c-0.42-0.28-0.74-0.59-0.96-0.93
			c-0.21-0.33-0.31-0.66-0.31-0.99c0-0.69,0.33-1.16,0.99-1.46c0.72-0.31,1.59-0.47,2.58-0.47c0.83,0,1.53,0.03,2.1,0.09l0.18,0.02
			l0.05-0.18c0.11-0.41,0.2-0.76,0.29-1.05c0.09-0.31,0.17-0.67,0.25-1.07l0.04-0.21l-0.2-0.04c-0.48-0.11-0.99-0.17-1.5-0.2
			c-3.02-0.18-5.18,0.2-6.5,1.19c-1.11,0.83-1.68,1.88-1.68,3.11c0,0.67,0.22,1.34,0.67,1.99c0.31,0.44,0.69,0.83,1.14,1.16h-3.6
			v2.63h12.25v-2.63h-1.76C113.25,171.87,112.45,171.78,111.77,171.61z"/>
		<path class="st7" d="M176.38,162.8c-0.77-0.45-1.67-0.77-2.67-0.94c-0.99-0.17-2.02-0.26-3.06-0.26h-1.53l6.85-7.93l-0.25-0.12
			c-0.49-0.24-0.91-0.46-1.26-0.65c-0.36-0.19-0.81-0.42-1.35-0.69l-0.15-0.07l-0.11,0.12c-1.37,1.57-2.7,3.14-3.94,4.65
			c-1.24,1.51-2.52,3.06-3.85,4.65l-0.05,0.06v2.74h4.62c0.81,0,1.57,0.04,2.26,0.11c0.68,0.07,1.29,0.23,1.81,0.47
			c0.5,0.24,0.9,0.61,1.19,1.1c0.29,0.5,0.44,1.19,0.44,2.07v3.53h-50.45v-19.48h-3.69v22.35h57.83v-6.7c0-1.26-0.25-2.3-0.73-3.11
			C177.8,163.9,177.16,163.26,176.38,162.8z"/>
		<path class="st7" d="M187.3,158.78c0.54,0,1-0.19,1.38-0.57c0.38-0.38,0.57-0.84,0.57-1.38c0-0.54-0.19-1-0.57-1.38
			c-0.38-0.38-0.84-0.57-1.38-0.57c-0.54,0-1,0.19-1.38,0.57c-0.38,0.38-0.57,0.85-0.57,1.38c0,0.54,0.19,1,0.57,1.38
			C186.3,158.59,186.76,158.78,187.3,158.78z"/>
		<path class="st7" d="M198.07,164.37c-0.48-0.82-1.13-1.48-1.93-1.96c-0.79-0.47-1.72-0.79-2.75-0.96
			c-1.02-0.17-2.07-0.25-3.13-0.25h-4.58v2.78h3.56c0.93,0,1.78,0.05,2.52,0.15c0.72,0.1,1.34,0.3,1.84,0.59
			c0.49,0.28,0.87,0.68,1.12,1.18c0.25,0.51,0.38,1.19,0.38,2.01v3.72h-11.82v2.87h15.51v-6.91
			C198.79,166.27,198.55,165.19,198.07,164.37z"/>
	</g>
</g>
</svg>
